<?xml version="1.0" encoding="UTF-8"?>
<svg id="Layer_2" xmlns="http://www.w3.org/2000/svg" version="1.1" viewBox="0 0 358.4 408.6">
  <!-- Generator: Adobe Illustrator 29.3.1, SVG Export Plug-In . SVG Version: 2.1.0 Build 151)  -->
  <defs>
    <style>
      .st0 {
        opacity: .5;
      }

      .st0, .st1 {
        fill: #606060;
        isolation: isolate;
      }

      .st2 {
        fill: #ffe88b;
      }

      .st2, .st3, .st4, .st5, .st6, .st7, .st8 {
        stroke: #000;
      }

      .st2, .st3, .st4, .st5, .st7, .st8 {
        stroke-miterlimit: 10;
      }

      .st2, .st4, .st5, .st7, .st8 {
        stroke-width: 2px;
      }

      .st1 {
        opacity: 0;
      }

      .st9 {
        fill: #b23f4a;
      }

      .st3, .st4 {
        fill: #fff;
      }

      .st10, .st5 {
        fill: #c4434a;
      }

      .st11 {
        opacity: .1;
      }

      .st12 {
        fill: #dd576a;
      }

      .st6 {
        stroke-miterlimit: 10;
        stroke-width: 2px;
      }

      .st6, .st7 {
        fill: #2d1014;
      }

      .st8 {
        fill: #fab6b6;
      }
    </style>
  </defs>
  <ellipse class="st0" cx="177.4" cy="329.6" rx="117.1" ry="36.7"/>
  <path d="M177.5,280.9h-8.1v-3.4c0-3.3.4-6,1.2-8.3s1.8-4.4,2.9-6.3,2.3-3.8,3.5-5.8c1.1-2,2.1-4.3,2.9-7,.8-2.7,1.2-5.9,1.2-9.8s-1-8.5-2.9-10.6c-2-2.1-4.4-3.2-7.4-3.2s-4.8.6-6.2,1.8-2.1,2.8-2.1,4.7.2,2.4.7,3.1c.4.8.9,1.5,1.4,2.3s.7,2,.7,3.6c0,2.6-.8,4.4-2.4,5.4-1.6,1-3.4,1.6-5.4,1.6s-5-.9-6.8-2.7-2.7-4.4-2.7-7.8,1.1-6.6,3.3-9.3,5.3-4.7,9.3-6.2,8.5-2.2,13.7-2.2,8.7.6,12.8,1.8,7.4,3.2,10,5.9c2.6,2.8,3.9,6.5,3.9,11.3s-.8,7.6-2.4,10.6c-1.6,3-3.5,5.7-5.8,8s-4.6,4.5-6.9,6.6c-2.3,2-4.3,4.2-5.8,6.3-1.6,2.2-2.4,4.6-2.4,7.4v2l-.2.2ZM173.7,306.1c-3.4,0-6-.8-7.7-2.3s-2.6-3.7-2.6-6.6.8-5.2,2.5-6.9c1.7-1.7,4.2-2.6,7.7-2.6s5.8.9,7.6,2.6c1.7,1.7,2.6,4.1,2.5,7.1,0,3-.9,5.2-2.6,6.6-1.6,1.4-4.1,2.1-7.5,2.1h.1Z"/>
  <g id="Layer_1-2">
    <g id="body">
      <path class="st2" d="M213.5,278.8h0c12.2,0,22.2,9.7,22.2,21.6v16.6c0,12-9.9,21.6-22.2,21.6h0c-12.2,0-22.2-9.7-22.2-21.6v-16.6c0-12,9.9-21.6,22.2-21.6Z"/>
      <path class="st1" d="M195.3,313s-3.5,22.3,9.4,22.3c0,0,13.8,3.8,19.7.5s-4.9.9-10.8-8.6c-5.9-9.5-3-19-3-19l-15.3,4.8h0Z"/>
      <path class="st2" d="M144.6,337.3h0c-12.2,0-22.2-9.7-22.2-21.6v-16.6c0-12,9.9-21.6,22.2-21.6h0c12.2,0,22.2,9.7,22.2,21.6v16.6c0,12-9.9,21.6-22.2,21.6Z"/>
      <path class="st1" d="M162.7,311.6s3.5,22.3-9.4,22.3c0,0-13.8,3.8-19.7.5-5.9-3.3,4.9.9,10.8-8.6,5.9-9.5,3-19,3-19l15.3,4.8h0Z"/>
      <g id="arm2">
        <path class="st2" d="M34.7,202.6l-2,8.4c-2.2,9.1,3.7,18.4,13.2,20.5l66.1,15c9.5,2.1,19-3.6,21.3-12.7l2-8.4c2.2-9.1-3.7-18.4-13.2-20.5l-66.1-15c-9.5-2.1-19,3.6-21.3,12.7Z"/>
        <path class="st1" d="M37.3,199s-2.8,25.7,41.5,29.5l30.2,2.4-5.3,9.5s-77.2-4.3-70.9-24.7l4.5-16.6h0Z"/>
      </g>
      <g id="arm1">
        <path class="st2" d="M317.7,201l2,8.4c2.2,9.1-3.7,18.4-13.2,20.5l-66.1,15c-9.5,2.1-19-3.6-21.3-12.7l-2-8.4c-2.2-9.1,3.7-18.4,13.2-20.5l66.1-15c9.5-2.1,19,3.6,21.3,12.7h0Z"/>
        <path class="st1" d="M315.2,197.4s2.8,25.7-41.5,29.5l-30.2,2.4,5.3,9.5s77.2-4.3,70.9-24.7l-4.5-16.6h0Z"/>
      </g>
      <path class="st2" d="M125.1,194.9s-70.7,72.9-7.6,107.3c8.8,4.8,18.5,7.8,28.5,9.2,8.1,1.1,19.2,2.4,24.9,2.6.9,0,1.8,0,2.6.1h1.9c4.3.4,8.5.3,12.8,0,5.6-.5,12.4-1.4,17.7-2.1,10-1.3,19.7-4.4,28.5-9.2,63.2-34.4-7.6-107.3-7.6-107.3-61.2-61.1-101.8-.5-101.8-.5h.1Z"/>
      <path class="st1" d="M110,213.3s-19.7,96.5,51.2,95c0,0,79.3-.9,90.6-29,0,0,1.5-48.5-12.8-69.8,0,0,75,101.6-68.2,104.5,0,0-125.9-3.3-60.9-100.7h.1Z"/>
      <ellipse id="stomach" class="st8" cx="175.8" cy="238.1" rx="45.3" ry="43.7"/>
      <path class="st11" d="M131.8,189.4s50.8-10.8,63.6-1,51.6,40.7,53.5,40.7-38.8-68.9-75.7-61.4-41.4,21.7-41.4,21.7Z"/>
    </g>
    <g id="belly">
      <path class="st1" d="M117.4,202.3s74.4,53.7,121.7,7.1l-14.3-21.4-102.9-7.1-4.4,21.4h0Z"/>
    </g>
    <g id="head">
      <path class="st2" d="M189.1,68.2l10-12s27.2-29.6,47.7-15.9c2,1.3,4,2.6,6.2,3.6,7.5,3.7,24,15,11.9,38.6,0,.2-.2.4-.3.6l-9.7,16.5"/>
      <path class="st2" d="M162.4,71.6l-9.9-12.1s-27-30-47.6-16.5c-2,1.3-4,2.5-6.2,3.6-7.5,3.6-24,14.7-12.2,38.5,0,.2.2.4.3.6l9.6,16.6"/>
      <path class="st8" d="M141,67.1l-9.5-11c0,0-.2-.2-.3-.3-1.1-1.4-12.3-14.6-25.5-3.1-.2.2-.5.4-.8.6l-6.3,4.7c-3.3,2.5-5.3,6.4-5,10.6v.2c.4,5.9,3.1,8.5,3.1,8.5l12.1,16.4"/>
      <path class="st8" d="M207.1,67.7l10-10.6c.1,0,.2-.2.3-.3,1.2-1.3,13-14,25.6-1.9.2.2.5.4.7.6l6.1,5c3.2,2.6,5,6.7,4.5,10.8s0,0,0,.2c-.7,5.9-3.5,8.3-3.5,8.3l-12.8,15.8"/>
      <path class="st2" d="M86.7,130.2s11.8-73.4,86.4-68.6h.6c4.5,0,64.9.5,80.5,35.7,0,0,14.5,32,14.5,38.8s15.5,48.8-54,75.9c-.6.3-1.3.4-2,.6-5.1.9-28.3,4.4-53.9,2-46.1-4.4-78.9-39.7-73-78.3l.9-6h0Z"/>
    </g>
    <g id="nose">
      <path class="st10" d="M173.3,161.7c1.2.9,3.1.6,4-.5,2.2-2.7,6.3-6.5,10.7-3.9,6.4,3.9,2,11.9-.9,14.1-1.7,1.3-5.2,3.8-7.8,5.6-2,1.4-4.9,1.6-7.2.5-4.1-2-10.1-5.9-11.6-12.3-2.3-10.1,7.1-7.4,7.1-7.4l5.6,3.9h0Z"/>
      <path class="st9" d="M161.2,161.8s3.6,4.8,8.5,7.6,6.3,2.6,9.6,1.3c8.9-3.5,11.2-5.5,11.2-5.5,0,0-2.1,7.6-13.6,12.7,0,0-2.8,2.4-7.9-2.1-5.1-4.4-9.5-8.9-7.7-13.9h-.1Z"/>
      <ellipse class="st12" cx="184.6" cy="162.7" rx="2.6" ry="1.2"/>
      <path class="st5" d="M158.4,191.7s-.7-3.6,3.5-1.5,16.8,8.2,31.2-.9c0,0,3.4-.8,2.7,2.4s-11.7,14.6-25.4,9.3c0,0-6.3-2.2-11.4-8.4l-.6-.9h0Z"/>
      <path class="st3" d="M170,195.4s-.2,3,2.9,3.4c0,0,4.8,1.2,8.2.3s2.8-1.8,3-3.5l.2-1.2v-.7s-8.5,1.8-14,.1l-.3-.2v1.7h0Z"/>
    </g>
  </g>
  <g id="eyes">
    <g>
      <ellipse class="st4" cx="123" cy="118.9" rx="44.9" ry="42.8"/>
      <ellipse class="st6" cx="130.7" cy="117.3" rx="28.5" ry="28.1" transform="translate(-10.1 222.2) rotate(-78.6)"/>
      <ellipse class="st4" cx="142.9" cy="110.2" rx="12.3" ry="12.1"/>
    </g>
    <g>
      <ellipse class="st4" cx="224.7" cy="113.4" rx="44.9" ry="42.8"/>
      <ellipse class="st7" cx="216.9" cy="111.8" rx="28.1" ry="28.4"/>
      <ellipse class="st4" cx="204.8" cy="104.7" rx="12.3" ry="12.1"/>
    </g>
  </g>
</svg>